<svg width="327" height="164" viewBox="0 0 327 164" fill="none" xmlns="http://www.w3.org/2000/svg">
<g clip-path="url(#clip0_23_5327)">
<path d="M198.527 0.841811C203.892 -0.641478 209.629 0.429989 214.649 2.59479C218.774 4.43888 222.782 6.73123 226.063 9.86181C231.278 14.8875 234.379 21.7573 235.668 28.7947C237.411 38.3103 236.181 48.2378 232.812 57.2724C231.829 59.9146 231.036 62.6188 230.331 65.3485C226.966 60.3082 222.628 55.8401 217.409 52.684C219.384 46.9367 221.446 41.0983 221.762 34.983C221.927 31.4187 221.208 27.5447 218.642 24.8842C215.992 22.1655 213.159 19.5269 209.761 17.763C207.217 16.44 204.182 15.8642 201.389 16.7024C197.774 17.7447 194.879 20.3469 192.424 23.0766C190.42 25.3361 188.698 27.9528 186.063 29.5564C184.988 30.2087 183.527 30.6935 182.379 29.9463C180.944 28.9769 180.584 27.1146 180.448 25.5111C180.169 20.3359 182.111 15.2519 185.083 11.0645C188.309 6.37043 192.893 2.31781 198.527 0.841811Z" fill="#F5793D"/>
<path d="M116.718 55.0965C121.64 52.6402 127.574 51.6635 132.848 53.5841C137.322 55.1585 140.83 58.6098 143.458 62.4401C145.194 62.1741 146.941 61.9809 148.68 61.7258C153.147 67.1524 156.244 73.5702 158.303 80.2505C157.07 81.2309 155.661 82.0108 154.567 83.1551C154.028 83.607 154.677 84.4781 155.279 84.387C156.472 83.6326 157.448 82.5684 158.733 81.9415C158.868 82.4809 159.008 83.0203 159.147 83.5597C157.522 84.3286 155.738 84.868 154.336 86.0197C154.127 86.6028 154.571 87.2005 155.206 87.1021C156.593 86.4133 157.962 85.6953 159.393 85.094C161.28 93.1409 160.494 101.461 160.674 109.643C146.68 109.654 132.686 109.639 118.693 109.65C120.862 106.323 123.871 102.795 128.117 102.391C128.646 102.456 129.273 101.815 128.859 101.33C128.334 100.477 127.174 101.057 126.396 101.14C122.131 102.325 119.082 105.958 116.953 109.636C115.089 109.661 113.228 109.639 111.363 109.65C113.532 106.319 116.538 102.799 120.784 102.391C121.662 102.511 121.963 101.217 121.115 100.947C119.584 100.794 118.047 101.37 116.707 102.073C113.65 103.819 111.338 106.622 109.617 109.636C107.602 109.658 105.587 109.658 103.576 109.632C106.853 104.329 112.402 100.415 118.608 99.3547C115.096 95.1198 112.549 89.6459 113.309 84.0553C115.892 84.8644 118.45 85.8302 120.781 87.2223C121.324 86.9964 121.955 86.3185 121.295 85.8192C118.894 84.2885 116.164 83.3374 113.433 82.5538C113.595 81.752 113.767 80.9539 113.955 80.1594C116.351 81.0851 118.366 82.7542 120.388 84.2886C121.096 84.7295 121.882 83.5159 121.181 83.0567C119.217 81.2381 116.887 79.8642 114.527 78.6178C115.76 75.3925 117.749 72.5097 120.061 69.955C118.788 66.8353 116.252 64.4591 113.518 62.5786C112.387 61.7367 111.052 61.0698 110.307 59.8234C112.009 57.7497 114.355 56.3174 116.718 55.0965ZM121.885 57.2869C118.986 57.7133 116.149 58.8321 113.822 60.6106C113.081 61.1172 114.043 62.2834 114.7 61.7768C117.151 60.1405 119.955 58.9123 122.928 58.6936C125.849 58.4239 128.77 59.4152 131.094 61.15C131.762 61.9481 132.932 60.6981 132.147 60.0931C129.343 57.7606 125.497 56.7293 121.885 57.2869ZM149.792 72.9835C147.994 73.8909 147.712 76.3036 148.192 78.0565C148.46 79.1572 149.627 80.4181 150.846 79.7658C152.398 78.8219 152.703 76.7263 152.365 75.0827C152.152 73.9238 151.15 72.5316 149.792 72.9835ZM132.598 74.1351C130.936 75.0718 130.62 77.3459 131.057 79.0442C131.314 80.1193 132.305 81.4131 133.564 80.9575C135.307 80.1302 135.589 77.8488 135.255 76.1614C135.046 74.9734 133.96 73.563 132.598 74.1351ZM137.043 83.6763C137.887 84.5728 138.878 85.3309 139.825 86.1181C139.59 87.3718 139.083 88.5963 138.228 89.5584C137.586 89.6131 137.516 88.753 137.12 88.4031C136.61 88.0642 136.21 88.5635 135.832 88.8332C136.158 89.8718 136.771 91.0745 138.004 91.1911C139.116 91.0854 139.773 90.1124 140.331 89.2705C140.801 90.2946 141.366 91.7888 142.772 91.6175C144.082 91.2932 144.636 89.9374 145.227 88.8769C144.944 88.5088 144.453 87.8783 143.931 88.2829C143.418 88.8988 143.102 89.6787 142.434 90.1598C141.872 89.0956 141.594 87.9221 141.414 86.7449C142.559 85.7536 143.748 84.8024 144.794 83.7054C145.315 83.1041 144.585 82.2258 143.884 82.3206C141.913 82.2914 139.942 82.2404 137.971 82.2768C137.303 82.2149 136.595 83.075 137.043 83.6763Z" fill="#F5793D"/>
<path opacity="0.5" d="M263.226 80.9685C269.747 80.9794 276.265 80.9831 282.787 80.9685C282.714 92.8676 282.633 104.763 282.549 116.662C279.11 112.387 275.711 108.08 272.309 103.775C269.256 107.558 266.279 111.403 263.219 115.183C263.237 103.779 263.218 92.3756 263.226 80.9685ZM271.744 88.0351C270.063 88.5198 268.746 90.0869 268.639 91.8326C268.562 93.1665 268.562 94.5076 268.635 95.8415C268.753 98.0391 270.808 99.9269 273.036 99.8212C275.352 99.8977 277.447 97.8095 277.366 95.5098C277.253 93.5965 277.807 91.439 276.625 89.7589C275.601 88.2027 273.524 87.5176 271.744 88.0351Z" fill="#F5793D"/>
<path opacity="0.5" d="M272.093 90.2255C273.322 89.6278 274.966 90.477 275.146 91.8254C275.223 93.1557 275.22 94.4968 275.153 95.827C275.007 97.3868 272.926 98.2178 271.707 97.2484C270.419 96.3482 270.871 94.628 270.786 93.3051C270.683 92.1498 270.874 90.7357 272.093 90.2255Z" fill="#F5793D"/>
<path d="M115.595 48.1577C118.256 47.6366 120.979 47.6293 123.68 47.673C149.124 47.673 174.569 47.673 200.013 47.673C206.138 47.673 212.22 49.4588 217.409 52.6841C222.628 55.8402 226.966 60.3083 230.331 65.3486C233.267 69.7073 235.407 74.5435 237.04 79.5218C254.3 79.4854 271.568 79.4854 288.828 79.5182C289.815 79.3797 289.878 80.976 288.883 80.9322C286.854 81.0489 284.817 80.9286 282.787 80.9687C276.265 80.9832 269.747 80.9796 263.226 80.9687C254.631 80.9723 246.032 80.9614 237.437 80.976C238.24 84.0628 238.894 87.197 239.227 90.375C239.701 94.1251 239.576 97.9153 239.594 101.687C239.598 107.365 239.583 113.047 239.602 118.729C223.736 118.714 207.867 118.725 192.001 118.725C192.001 133.412 192.009 148.099 191.998 162.786C236.787 162.765 281.576 162.823 326.365 162.757C326.523 162.878 326.842 163.118 327 163.238V164H0V163.304C0.165152 163.169 0.491785 162.896 0.656936 162.757C48.5435 162.83 96.4301 162.746 144.313 162.801C144.357 148.107 144.32 133.412 144.331 118.721C109.91 118.721 75.4853 118.725 41.064 118.721C41.0457 115.7 41.0567 112.683 41.0567 109.665C54.6138 109.636 68.1746 109.654 81.7353 109.658C81.7684 104.577 81.6729 99.497 81.7904 94.4203C82.3556 82.3317 86.4513 70.1921 94.3933 60.8914C99.8102 54.5246 107.249 49.6265 115.595 48.1577ZM135.41 49.2948C138.25 50.5412 140.878 52.2322 143.304 54.1528C151.315 60.5707 156.791 69.7328 159.694 79.4599C163.933 77.1019 168.7 75.5712 173.585 75.4911C178.705 75.3744 183.825 76.8796 188.155 79.5728C189.007 79.9227 188.372 81.3914 187.535 80.9322C184.467 79.2084 181.175 77.7725 177.655 77.2987C171.655 76.3621 165.438 77.9146 160.263 80.9723C160.105 81.6465 160.535 82.3645 160.626 83.0569C164.931 81.7012 169.534 81.1254 174.022 81.7887C179.325 82.5394 184.309 85.0577 188.221 88.6657C189.036 89.1869 187.979 90.5353 187.297 89.8648C184.9 87.8129 182.276 85.9688 179.318 84.8136C173.508 82.4629 166.796 82.5212 160.946 84.6787C162.058 89.5295 162.311 94.5333 162.278 99.4934C162.285 105.39 162.26 111.287 162.289 117.184C187.55 117.147 212.811 117.173 238.071 117.169C238.053 110.296 238.086 103.422 238.053 96.5523C237.987 91.297 237.202 86.0672 235.814 81.0015C228.537 80.9322 221.252 81.0379 213.974 80.9504C213.064 80.7099 213.412 79.3287 214.293 79.438C221.299 79.3906 228.309 79.4416 235.315 79.4125C232.416 70.3706 227.182 61.8608 219.534 56.037C213.901 51.7111 206.843 49.1162 199.683 49.2438C178.257 49.2729 156.832 49.1672 135.41 49.2948ZM116.718 55.0968C114.355 56.3176 112.009 57.7499 110.307 59.8236C111.052 61.07 112.387 61.7369 113.518 62.5788C116.252 64.4593 118.788 66.8355 120.061 69.9552C117.749 72.5099 115.76 75.3927 114.527 78.618C116.887 79.8644 119.217 81.2384 121.181 83.0569C121.882 83.5161 121.096 84.7297 120.388 84.2888C118.366 82.7544 116.351 81.0853 113.955 80.1596C113.767 80.9541 113.595 81.7522 113.433 82.554C116.164 83.3376 118.894 84.2888 121.295 85.8194C121.955 86.3187 121.324 86.9966 120.781 87.2225C118.45 85.8304 115.892 84.8646 113.309 84.0555C112.549 89.6461 115.096 95.12 118.608 99.3549C112.402 100.415 106.853 104.33 103.576 109.632C105.587 109.658 107.602 109.658 109.617 109.636C111.338 106.622 113.65 103.819 116.707 102.074C118.047 101.37 119.584 100.794 121.115 100.948C121.963 101.217 121.662 102.511 120.784 102.391C116.538 102.799 113.532 106.319 111.364 109.65C113.228 109.64 115.089 109.661 116.953 109.636C119.082 105.959 122.131 102.325 126.396 101.141C127.174 101.057 128.334 100.477 128.859 101.33C129.273 101.815 128.646 102.456 128.117 102.391C123.871 102.795 120.862 106.323 118.693 109.65C132.686 109.64 146.68 109.654 160.674 109.643C160.494 101.461 161.28 93.1411 159.393 85.0942C157.962 85.6955 156.593 86.4135 155.206 87.1023C154.571 87.2007 154.127 86.603 154.336 86.0199C155.738 84.8682 157.522 84.3288 159.147 83.5599C159.008 83.0205 158.868 82.4811 158.733 81.9417C157.448 82.5686 156.472 83.6328 155.279 84.3872C154.677 84.4783 154.028 83.6073 154.567 83.1553C155.661 82.011 157.07 81.2311 158.303 80.2507C156.244 73.5704 153.147 67.1526 148.68 61.726C146.941 61.9811 145.194 62.1743 143.458 62.4403C140.83 58.61 137.322 55.1587 132.848 53.5843C127.574 51.6637 121.64 52.6404 116.718 55.0968Z" fill="#050A30"/>
<path d="M121.885 57.287C125.497 56.7294 129.343 57.7608 132.147 60.0932C132.932 60.6982 131.762 61.9483 131.094 61.1501C128.77 59.4154 125.849 58.4241 122.928 58.6938C119.955 58.9124 117.151 60.1406 114.7 61.777C114.043 62.2835 113.081 61.1173 113.822 60.6108C116.149 58.8323 118.986 57.7134 121.885 57.287Z" fill="#050A30"/>
<path d="M149.792 72.9836C151.15 72.5317 152.152 73.9239 152.365 75.0828C152.703 76.7264 152.398 78.822 150.846 79.7659C149.627 80.4182 148.46 79.1573 148.192 78.0566C147.711 76.3037 147.994 73.891 149.792 72.9836Z" fill="#050A30"/>
<path d="M132.598 74.1353C133.96 73.5632 135.046 74.9736 135.256 76.1616C135.59 77.849 135.307 80.1304 133.564 80.9577C132.305 81.4133 131.314 80.1195 131.057 79.0444C130.62 77.3461 130.936 75.072 132.598 74.1353Z" fill="#050A30"/>
<path d="M137.043 83.6765C136.595 83.0752 137.303 82.2151 137.971 82.277C139.942 82.2406 141.913 82.2916 143.884 82.3208C144.585 82.226 145.315 83.1043 144.794 83.7057C143.748 84.8026 142.559 85.7539 141.414 86.7451C141.594 87.9223 141.872 89.0958 142.434 90.16C143.102 89.6789 143.418 88.899 143.931 88.2831C144.452 87.8786 144.944 88.509 145.227 88.8771C144.636 89.9377 144.082 91.2934 142.772 91.6178C141.366 91.7891 140.801 90.2948 140.331 89.2707C139.773 90.1126 139.116 91.0857 138.004 91.1914C136.771 91.0747 136.158 89.8721 135.832 88.8334C136.21 88.5637 136.61 88.0644 137.12 88.4034C137.516 88.7532 137.586 89.6133 138.228 89.5587C139.083 88.5965 139.59 87.372 139.825 86.1183C138.878 85.3311 137.887 84.5731 137.043 83.6765Z" fill="#050A30"/>
<path opacity="0.9" d="M135.41 49.2946C156.832 49.1671 178.257 49.2728 199.683 49.2436C206.843 49.1161 213.901 51.7109 219.534 56.0369C227.183 61.8607 232.416 70.3705 235.315 79.4123C228.309 79.4415 221.299 79.3905 214.293 79.4379C213.413 79.3285 213.064 80.7098 213.974 80.9503C221.252 81.0378 228.537 80.9321 235.814 81.0013C237.202 86.0671 237.987 91.2969 238.053 96.5522C238.086 103.422 238.053 110.295 238.072 117.169C212.811 117.172 187.55 117.147 162.289 117.183C162.26 111.287 162.285 105.39 162.278 99.4932C162.311 94.5331 162.058 89.5293 160.946 84.6786C166.796 82.5211 173.508 82.4627 179.318 84.8134C182.276 85.9687 184.9 87.8128 187.297 89.8646C187.979 90.5352 189.036 89.1867 188.221 88.6656C184.309 85.0576 179.325 82.5393 174.022 81.7885C169.534 81.1252 164.931 81.701 160.626 83.0568C160.535 82.3643 160.105 81.6464 160.263 80.9722C165.438 77.9145 171.655 76.3619 177.655 77.2986C181.175 77.7723 184.467 79.2083 187.535 80.9321C188.372 81.3913 189.007 79.9226 188.155 79.5727C183.825 76.8795 178.705 75.3743 173.585 75.4909C168.701 75.5711 163.933 77.1018 159.694 79.4597C156.791 69.7327 151.316 60.5706 143.304 54.1527C140.878 52.2321 138.25 50.541 135.41 49.2946Z" fill="#050A30"/>
<path d="M271.744 88.0352C273.524 87.5177 275.601 88.2029 276.625 89.759C277.807 91.4391 277.253 93.5966 277.367 95.51C277.447 97.8096 275.352 99.8979 273.036 99.8214C270.808 99.927 268.753 98.0392 268.636 95.8416C268.562 94.5078 268.562 93.1666 268.639 91.8327C268.746 90.087 270.063 88.5199 271.744 88.0352ZM272.093 90.2255C270.874 90.7358 270.684 92.1498 270.786 93.3051C270.871 94.628 270.419 96.3482 271.707 97.2484C272.926 98.2178 275.007 97.3869 275.154 95.827C275.22 94.4968 275.223 93.1557 275.146 91.8254C274.966 90.477 273.322 89.6278 272.093 90.2255Z" fill="white"/>
</g>
<defs>
<clipPath id="clip0_23_5327">
<rect width="327" height="164" fill="white"/>
</clipPath>
</defs>
</svg>
