<svg width="21" height="24" viewBox="0 0 21 24" fill="none" xmlns="http://www.w3.org/2000/svg">
<g id="profile">
<path id="Vector" d="M10.2401 10.87C10.1559 10.86 10.0549 10.86 9.96224 10.87C7.95803 10.79 6.36646 8.84 6.36646 6.44C6.36646 3.99 8.03382 2 10.1054 2C12.1686 2 13.8444 3.99 13.8444 6.44C13.8359 8.84 12.2443 10.79 10.2401 10.87Z" stroke="#121927" stroke-width="1.25" stroke-linecap="round" stroke-linejoin="round"/>
<path id="Vector_2" d="M6.02964 14.56C3.99175 16.18 3.99175 18.82 6.02964 20.43C8.34543 22.27 12.1433 22.27 14.4591 20.43C16.497 18.81 16.497 16.17 14.4591 14.56C12.1517 12.73 8.35385 12.73 6.02964 14.56Z" stroke="#121927" stroke-width="1.25" stroke-linecap="round" stroke-linejoin="round"/>
</g>
</svg>
